<svg xmlns="http://www.w3.org/2000/svg" viewBox="0 0 900 160">
  <style>
    @keyframes ecgScroll { from { transform: translateX(0) } to { transform: translateX(-900px) } }
    @keyframes capScroll { from { transform: translateX(0) } to { transform: translateX(-900px) } }
    .ecg-line { animation: ecgScroll 5s linear infinite }
    .cap-line { animation: capScroll 8s linear infinite }
    @media (prefers-reduced-motion: reduce) {
      .ecg-line, .cap-line { animation: none }
    }
  </style>
  <defs>
    <clipPath id="viewport"><rect x="0" y="0" width="900" height="160"/></clipPath>
  </defs>
  <!-- Background -->
  <rect width="900" height="160" fill="#000000" rx="8"/>
  <!-- Waveforms (clipped to viewport) -->
  <g clip-path="url(#viewport)">
    <!-- ECG waveform (green) -->
    <g class="ecg-line" opacity="0.3">
      <path d="M0,40 L35,40 L42,31 L46,40 L49,40 L50,43 L51,8 L52,62 L54,40 L68,40 L74,29 L82,40 L100,40 L135,40 L142,31 L146,40 L149,40 L150,43 L151,8 L152,62 L154,40 L168,40 L174,29 L182,40 L200,40 L235,40 L242,31 L246,40 L249,40 L250,43 L251,8 L252,62 L254,40 L268,40 L274,29 L282,40 L300,40 L335,40 L342,31 L346,40 L349,40 L350,43 L351,8 L352,62 L354,40 L368,40 L374,29 L382,40 L400,40 L435,40 L442,31 L446,40 L449,40 L450,43 L451,8 L452,62 L454,40 L468,40 L474,29 L482,40 L500,40 L535,40 L542,31 L546,40 L549,40 L550,43 L551,8 L552,62 L554,40 L568,40 L574,29 L582,40 L600,40 L635,40 L642,31 L646,40 L649,40 L650,43 L651,8 L652,62 L654,40 L668,40 L674,29 L682,40 L700,40 L735,40 L742,31 L746,40 L749,40 L750,43 L751,8 L752,62 L754,40 L768,40 L774,29 L782,40 L800,40 L835,40 L842,31 L846,40 L849,40 L850,43 L851,8 L852,62 L854,40 L868,40 L874,29 L882,40 L900,40 L935,40 L942,31 L946,40 L949,40 L950,43 L951,8 L952,62 L954,40 L968,40 L974,29 L982,40 L1000,40 L1035,40 L1042,31 L1046,40 L1049,40 L1050,43 L1051,8 L1052,62 L1054,40 L1068,40 L1074,29 L1082,40 L1100,40 L1135,40 L1142,31 L1146,40 L1149,40 L1150,43 L1151,8 L1152,62 L1154,40 L1168,40 L1174,29 L1182,40 L1200,40 L1235,40 L1242,31 L1246,40 L1249,40 L1250,43 L1251,8 L1252,62 L1254,40 L1268,40 L1274,29 L1282,40 L1300,40 L1335,40 L1342,31 L1346,40 L1349,40 L1350,43 L1351,8 L1352,62 L1354,40 L1368,40 L1374,29 L1382,40 L1400,40 L1435,40 L1442,31 L1446,40 L1449,40 L1450,43 L1451,8 L1452,62 L1454,40 L1468,40 L1474,29 L1482,40 L1500,40 L1535,40 L1542,31 L1546,40 L1549,40 L1550,43 L1551,8 L1552,62 L1554,40 L1568,40 L1574,29 L1582,40 L1600,40 L1635,40 L1642,31 L1646,40 L1649,40 L1650,43 L1651,8 L1652,62 L1654,40 L1668,40 L1674,29 L1682,40 L1700,40 L1735,40 L1742,31 L1746,40 L1749,40 L1750,43 L1751,8 L1752,62 L1754,40 L1768,40 L1774,29 L1782,40 L1800,40" stroke="#10b981" stroke-width="2" fill="none" stroke-linejoin="round"/>
    </g>
    <!-- EtCO2 waveform (cyan) -->
    <g class="cap-line" opacity="0.35">
      <path d="M0,130 L20,130 L26,86 L56,83 L62,130 L100,130 L120,130 L126,86 L156,83 L162,130 L200,130 L220,130 L226,86 L256,83 L262,130 L300,130 L320,130 L326,86 L356,83 L362,130 L400,130 L420,130 L426,86 L456,83 L462,130 L500,130 L520,130 L526,86 L556,83 L562,130 L600,130 L620,130 L626,86 L656,83 L662,130 L700,130 L720,130 L726,86 L756,83 L762,130 L800,130 L820,130 L826,86 L856,83 L862,130 L900,130 L920,130 L926,86 L956,83 L962,130 L1000,130 L1020,130 L1026,86 L1056,83 L1062,130 L1100,130 L1120,130 L1126,86 L1156,83 L1162,130 L1200,130 L1220,130 L1226,86 L1256,83 L1262,130 L1300,130 L1320,130 L1326,86 L1356,83 L1362,130 L1400,130 L1420,130 L1426,86 L1456,83 L1462,130 L1500,130 L1520,130 L1526,86 L1556,83 L1562,130 L1600,130 L1620,130 L1626,86 L1656,83 L1662,130 L1700,130 L1720,130 L1726,86 L1756,83 L1762,130 L1800,130" stroke="#06b6d4" stroke-width="2" fill="none" stroke-linejoin="round"/>
    </g>
  </g>
  <!-- Text overlay -->
  <text x="450" y="68" text-anchor="middle" fill="#f8fafc" font-family="ui-monospace,SFMono-Regular,Menlo,Monaco,monospace" font-size="32" font-weight="700" letter-spacing="1">pulser</text>
  <text x="450" y="96" text-anchor="middle" fill="#06b6d4" font-family="ui-monospace,SFMono-Regular,Menlo,Monaco,monospace" font-size="14" letter-spacing="3">Diagnose. Prescribe. Fix.</text>
</svg>
